<svg version="1.2" xmlns="http://www.w3.org/2000/svg" viewBox="0 0 149 37" width="149" height="37">
	<title>logo-svg</title>
	<style>
		.s0 { fill: #0b132a } 
		.s1 { fill: #f53838 } 
	</style>
	<path id="Layer" fill-rule="evenodd" class="s0" d="m45 27.1q-0.2 0-0.3-0.1-0.1-0.2-0.1-0.4v-13q0-0.2 0.1-0.3 0.1-0.2 0.3-0.2h1.9q0.2 0 0.4 0.2 0.1 0.1 0.1 0.3v11.1h6.3q0.3 0 0.4 0.2 0.1 0.1 0.1 0.3v1.4q0 0.2-0.1 0.4-0.1 0.1-0.4 0.1zm14 0.2q-1.1 0-1.9-0.4-0.9-0.4-1.4-1.1-0.4-0.7-0.4-1.5 0-1.4 1.1-2.2 1.1-0.9 3-1.2l2.7-0.4v-0.4q0-0.9-0.4-1.3-0.5-0.4-1.4-0.4-0.7 0-1.1 0.2-0.4 0.2-0.6 0.5-0.3 0.2-0.4 0.3 0 0.3-0.3 0.3h-1.5q-0.2 0-0.3-0.2-0.2-0.1-0.2-0.3 0.1-0.5 0.5-1.1 0.5-0.6 1.5-1.1 1-0.5 2.4-0.5 2.4 0 3.4 1.1 1.1 1 1.1 2.8v6.2q0 0.2-0.1 0.4-0.1 0.1-0.4 0.1h-1.6q-0.2 0-0.4-0.1-0.1-0.2-0.1-0.4v-0.7q-0.4 0.6-1.2 1-0.8 0.4-2 0.4zm0.6-1.9q1.1 0 1.8-0.7 0.7-0.7 0.7-2.1v-0.4l-2 0.3q-2.3 0.4-2.3 1.6 0 0.6 0.6 1 0.5 0.3 1.2 0.3zm11.7 1.9q-1.5 0-2.5-0.4-1-0.5-1.5-1.1-0.5-0.6-0.5-1.1 0-0.2 0.1-0.3 0.2-0.1 0.3-0.1h1.7q0.1 0 0.3 0.2 0.1 0 0.4 0.3 0.4 0.3 0.8 0.5 0.5 0.2 1 0.2 0.8 0 1.3-0.3 0.5-0.3 0.5-0.9 0-0.4-0.2-0.7-0.3-0.2-0.9-0.4-0.5-0.2-1.7-0.5-1.7-0.4-2.5-1.1-0.8-0.7-0.8-2 0-0.8 0.4-1.5 0.5-0.7 1.5-1.1 0.9-0.5 2.2-0.5 1.4 0 2.4 0.5 1 0.4 1.5 1 0.5 0.6 0.5 1 0 0.2-0.2 0.4-0.1 0.1-0.3 0.1h-1.5q-0.2 0-0.3-0.2-0.1-0.1-0.5-0.3-0.3-0.3-0.6-0.5-0.4-0.1-1-0.1-0.7 0-1.1 0.3-0.4 0.3-0.4 0.8 0 0.4 0.2 0.6 0.2 0.3 0.8 0.5 0.5 0.2 1.7 0.4 3.6 0.7 3.6 3.1 0 1.5-1.2 2.3-1.3 0.9-3.5 0.9zm7.3-0.2q-0.2 0-0.4-0.1-0.1-0.2-0.1-0.4v-13.2q0-0.2 0.1-0.3 0.2-0.2 0.4-0.2h1.6q0.3 0 0.4 0.2 0.1 0.1 0.1 0.3v13.2q0 0.2-0.1 0.4-0.1 0.1-0.4 0.1zm9.3 0.2q-2.2 0-3.5-1.3-1.3-1.2-1.4-3.6v-0.5q0-2.5 1.3-3.9 1.3-1.5 3.6-1.5 2.4 0 3.7 1.5 1.3 1.4 1.3 3.8v0.4q0 0.2-0.2 0.4-0.1 0.1-0.3 0.1h-6.7v0.2q0.1 1.1 0.6 1.8 0.6 0.7 1.6 0.7 1.2 0 1.9-0.9 0.2-0.2 0.3-0.2 0.1-0.1 0.3-0.1h1.8q0.1 0 0.3 0.1 0.1 0.1 0.1 0.3 0 0.5-0.6 1.1-0.5 0.7-1.6 1.1-1.1 0.5-2.5 0.5zm2.2-6.3q0-1.2-0.6-1.9-0.6-0.7-1.6-0.7-1 0-1.6 0.7-0.6 0.7-0.6 1.9zm8.9 6.3q-1.5 0-2.6-0.4-1-0.5-1.5-1.1-0.5-0.6-0.5-1.1 0-0.2 0.2-0.3 0.1-0.1 0.3-0.1h1.6q0.2 0 0.3 0.2 0.1 0 0.4 0.3 0.4 0.3 0.8 0.5 0.5 0.2 1 0.2 0.8 0 1.3-0.3 0.5-0.3 0.5-0.9 0-0.4-0.2-0.7-0.2-0.2-0.8-0.4-0.6-0.2-1.8-0.5-1.7-0.4-2.5-1.1-0.8-0.7-0.8-2 0-0.8 0.5-1.5 0.5-0.7 1.4-1.1 1-0.5 2.3-0.5 1.3 0 2.3 0.5 1 0.4 1.5 1 0.5 0.6 0.5 1 0 0.2-0.1 0.4-0.1 0.1-0.3 0.1h-1.5q-0.2 0-0.4-0.2-0.1-0.1-0.4-0.3-0.3-0.3-0.7-0.5-0.4-0.1-0.9-0.1-0.8 0-1.2 0.3-0.4 0.3-0.4 0.8 0 0.4 0.2 0.6 0.2 0.3 0.8 0.5 0.6 0.2 1.7 0.4 3.6 0.7 3.6 3.1 0 1.5-1.2 2.3-1.2 0.9-3.4 0.9zm10.7-0.2q-0.3 0-0.5-0.1-0.2-0.2-0.3-0.5l-4-12.8-0.1-0.2q0-0.1 0.1-0.2 0.2-0.2 0.4-0.2h2.6q0.3 0 0.5 0.2 0.1 0.2 0.2 0.4l2.7 9 2.8-9q0-0.3 0.2-0.4 0.2-0.2 0.5-0.2h2.6q0.2 0 0.3 0.2 0.1 0.1 0.1 0.2 0 0.1 0 0.2l-4 12.8q-0.1 0.3-0.3 0.5-0.2 0.1-0.6 0.1zm10.5 0q-0.2 0-0.4-0.1-0.1-0.2-0.1-0.4v-13q0-0.2 0.1-0.3 0.2-0.2 0.4-0.2h5.7q2.6 0 4 1.2 1.5 1.2 1.5 3.5 0 2.2-1.5 3.4-1.4 1.1-4 1.1h-2.3v4.3q0 0.2-0.2 0.4-0.1 0.1-0.3 0.1zm5.5-7.7q0.9 0 1.3-0.4 0.5-0.4 0.5-1.3 0-0.7-0.4-1.2-0.5-0.5-1.4-0.5h-2.2v3.4zm8 7.7q-0.2 0-0.4-0.1-0.1-0.2-0.1-0.4v-13q0-0.2 0.1-0.3 0.2-0.2 0.4-0.2h2.3q0.4 0 0.6 0.4l4.8 7.5v-7.4q0-0.2 0.1-0.3 0.1-0.2 0.4-0.2h2.5q0.2 0 0.4 0.2 0.1 0.1 0.1 0.3v13q0 0.2-0.1 0.4-0.2 0.1-0.4 0.1h-2.3q-0.4 0-0.6-0.4l-4.7-7.1v7q0 0.2-0.2 0.4-0.1 0.1-0.4 0.1z"/>
	<path id="Layer" fill-rule="evenodd" class="s1" d="m34.9 21.4c0.4 2.9-0.3 5.9-1.8 8.4-1.5 2.6-3.9 4.5-6.6 5.6-2.8 1-5.8 1.1-8.6 0.2q-0.4-0.1-0.8 0c-2.8 0.9-5.8 0.8-8.6-0.2-2.7-1.1-5.1-3-6.6-5.6-1.5-2.5-2.2-5.5-1.8-8.4 0.3-2.9 1.7-5.7 3.8-7.8q0 0 0 0l13.6-13.6 13.6 13.6q0 0 0 0c2.1 2.1 3.5 4.9 3.8 7.8zm-21.5-3.7q0.1-0.1 0.2-0.1 0.1 0 0.1 0.1 0.1 0 0.1 0.1 0 0.1 0 0.2c-1.8 3.3-0.3 8 2.3 10.6h0.1c0.3 0.4 0.8 0.6 1.3 0.6 0.5 0 1-0.2 1.4-0.6 2.6-2.6 4.1-7.3 2.3-10.6q0-0.1 0-0.2 0-0.1 0.1-0.1 0-0.1 0.1-0.1 0.1 0 0.2 0.1l4.7 4.9q0.1 0.1 0.1 0.3 0.1 0.1 0.1 0.2c0 2.4-0.7 4.8-2 6.8q0 0.1 0 0.2 0 0.1 0 0.1 0.1 0.1 0.2 0.1 0.1 0 0.1 0 1.5-0.6 2.6-1.7c1.5-1.5 2.3-3.5 2.3-5.6 0-2.1-0.8-4.1-2.3-5.6l-9.9-9.9-9.9 9.9c-1.5 1.5-2.3 3.5-2.3 5.6 0 2.1 0.8 4.1 2.3 5.6q1.1 1.1 2.6 1.7 0 0 0.1 0 0.1 0 0.2-0.1 0 0 0-0.1 0-0.1 0-0.2c-1.3-2-2-4.4-2-6.8q0-0.1 0.1-0.2 0-0.2 0.1-0.3z"/>
</svg>